<svg width="24" height="24" viewBox="0 0 24 24" fill="none" xmlns="http://www.w3.org/2000/svg">
<path d="M14.293 2.29279C14.4805 2.10532 14.7348 2 15 2C15.2652 2 15.5195 2.10532 15.707 2.29279L19.707 6.29279C19.8945 6.48031 19.9998 6.73462 19.9998 6.99979C19.9998 7.26495 19.8945 7.51926 19.707 7.70679L15.707 11.7068C15.5184 11.8889 15.2658 11.9897 15.0036 11.9875C14.7414 11.9852 14.4906 11.88 14.3052 11.6946C14.1198 11.5092 14.0146 11.2584 14.0123 10.9962C14.01 10.734 14.1108 10.4814 14.293 10.2928L16.586 7.99979H5C4.73478 7.99979 4.48043 7.89443 4.29289 7.70689C4.10536 7.51936 4 7.265 4 6.99979C4 6.73457 4.10536 6.48022 4.29289 6.29268C4.48043 6.10514 4.73478 5.99979 5 5.99979H16.586L14.293 3.70679C14.1055 3.51926 14.0002 3.26495 14.0002 2.99979C14.0002 2.73462 14.1055 2.48031 14.293 2.29279ZM9.707 12.2928C9.89447 12.4803 9.99979 12.7346 9.99979 12.9998C9.99979 13.265 9.89447 13.5193 9.707 13.7068L7.414 15.9998H19C19.2652 15.9998 19.5196 16.1051 19.7071 16.2927C19.8946 16.4802 20 16.7346 20 16.9998C20 17.265 19.8946 17.5194 19.7071 17.7069C19.5196 17.8944 19.2652 17.9998 19 17.9998H7.414L9.707 20.2928C9.88916 20.4814 9.98995 20.734 9.98767 20.9962C9.9854 21.2584 9.88023 21.5092 9.69482 21.6946C9.50941 21.88 9.2586 21.9852 8.9964 21.9875C8.7342 21.9897 8.4816 21.8889 8.293 21.7068L4.293 17.7068C4.10553 17.5193 4.00021 17.265 4.00021 16.9998C4.00021 16.7346 4.10553 16.4803 4.293 16.2928L8.293 12.2928C8.48053 12.1053 8.73484 12 9 12C9.26516 12 9.51947 12.1053 9.707 12.2928Z" fill="#D48C00"/>
</svg>
