<svg width="557" height="98" viewBox="0 0 557 98" fill="none" xmlns="http://www.w3.org/2000/svg">
<g filter="url(#filter0_d_6_44)">
<path d="M61.056 63.3C61.056 67.784 60.5053 71.3633 59.404 74.038C58.3027 76.634 56.7687 78.4433 54.802 79.466C52.914 80.4887 50.3967 81 47.25 81C42.6087 81 39.226 79.7807 37.102 77.342C35.0567 74.8247 33.9947 70.4193 33.916 64.126L33.68 20.584H23.65C18.694 20.584 14.9573 19.7973 12.44 18.224C10.0013 16.6507 8.782 13.858 8.782 9.84599C8.782 7.40733 9.254 5.48 10.198 4.064C11.2207 2.648 12.7153 1.66466 14.682 1.11399C16.6487 0.48466 19.284 0.169993 22.588 0.169993H73.092C77.4973 0.169993 80.6833 0.956661 82.65 2.53C84.6167 4.10333 85.6 6.81733 85.6 10.672C85.6 13.268 85.01 15.3133 83.83 16.808C82.7287 18.224 81.234 19.2073 79.346 19.758C77.458 20.3087 75.0193 20.584 72.03 20.584H61.056V63.3ZM115.798 53.034C115.798 48.9433 115.287 45.364 114.264 42.296C113.241 39.1493 111.747 37.576 109.78 37.576C108.443 37.576 107.263 38.3627 106.24 39.936C105.217 41.5093 104.47 43.4367 103.998 45.718C103.526 47.9993 103.29 50.438 103.29 53.034C103.29 57.046 103.841 60.586 104.942 63.654C106.043 66.6433 107.617 68.138 109.662 68.138C111.707 68.138 113.241 66.6433 114.264 63.654C115.287 60.6647 115.798 57.1247 115.798 53.034ZM109.662 81.826C103.526 81.826 97.9799 80.7247 93.0239 78.522C88.1465 76.3193 84.2132 73.0153 81.2239 68.61C78.3132 64.2047 76.8579 59.052 76.8579 53.152C76.8579 44.184 79.9259 37.0647 86.0619 31.794C92.1979 26.5233 100.065 23.888 109.662 23.888C119.259 23.888 127.087 26.5233 133.144 31.794C139.201 37.0647 142.23 44.184 142.23 53.152C142.23 62.0413 139.123 69.0427 132.908 74.156C126.772 79.2693 119.023 81.826 109.662 81.826ZM156.873 55.748V41.824C154.906 41.7453 153.333 41.4307 152.153 40.88C150.973 40.2507 150.108 39.464 149.557 38.52C149.085 37.576 148.849 36.396 148.849 34.98C148.849 30.496 151.563 28.0573 156.991 27.664V16.69C156.991 13.7007 159.154 11.026 163.481 8.666C167.808 6.22733 172.095 5.00799 176.343 5.00799C178.939 5.00799 180.63 5.75533 181.417 7.25C182.204 8.74467 182.597 10.9867 182.597 13.976L182.715 27.546H185.901C190.228 27.546 193.178 28.136 194.751 29.316C196.403 30.4173 197.229 32.4627 197.229 35.452C197.229 36.7107 196.993 37.7727 196.521 38.638C196.049 39.5033 195.262 40.172 194.161 40.644C193.138 41.116 191.88 41.47 190.385 41.706C188.89 41.8633 187.042 41.942 184.839 41.942H182.715V54.922C182.715 56.1807 182.754 57.2427 182.833 58.108C182.99 58.8947 183.187 59.524 183.423 59.996C183.659 60.468 183.974 60.7827 184.367 60.94C184.839 61.0973 185.39 61.176 186.019 61.176C186.963 61.176 187.75 60.8613 188.379 60.232C189.008 59.524 189.48 58.7767 189.795 57.99C190.188 57.1247 190.66 56.3773 191.211 55.748C191.84 55.04 192.548 54.686 193.335 54.686C195.144 54.686 196.521 55.1187 197.465 55.984C198.488 56.8493 198.999 57.9113 198.999 59.17C198.999 61.294 198.566 63.5753 197.701 66.014C196.914 68.4527 195.734 70.8127 194.161 73.094C192.588 75.3753 190.385 77.2633 187.553 78.758C184.8 80.2527 181.692 81 178.231 81C170.443 81 164.936 79.0333 161.711 75.1C158.486 71.1667 156.873 64.716 156.873 55.748ZM237.818 23.888C245.134 23.888 251.231 25.3827 256.108 28.372C260.985 31.3613 263.424 34.626 263.424 38.166C263.424 39.1887 262.991 40.1327 262.126 40.998C261.261 41.8633 260.159 42.296 258.822 42.296C257.642 42.296 256.344 41.9027 254.928 41.116C253.512 40.2507 252.175 39.346 250.916 38.402C249.657 37.458 248.005 36.5927 245.96 35.806C243.915 35.0193 241.751 34.626 239.47 34.626C236.402 34.626 234.868 35.57 234.868 37.458C234.868 38.7953 235.655 39.8573 237.228 40.644C238.801 41.4307 241.083 42.2567 244.072 43.122C247.14 43.9873 249.461 44.8133 251.034 45.6C256.934 47.8813 260.985 50.3593 263.188 53.034C265.391 55.63 266.492 59.0913 266.492 63.418C266.492 65.542 265.902 67.666 264.722 69.79C263.542 71.8353 261.772 73.802 259.412 75.69C257.052 77.4993 253.827 78.994 249.736 80.174C245.724 81.2753 241.122 81.826 235.93 81.826C225.782 81.826 218.191 79.5053 213.156 74.864C210.717 72.5827 209.498 70.2227 209.498 67.784C209.498 66.2893 209.97 65.1093 210.914 64.244C211.937 63.3787 213.353 62.946 215.162 62.946C216.971 62.946 219.725 63.8507 223.422 65.66C227.119 67.3907 230.541 68.256 233.688 68.256C238.015 68.256 240.178 67.194 240.178 65.07C240.178 63.9687 239.037 63.1033 236.756 62.474C234.475 61.766 231.485 60.94 227.788 59.996C224.091 59.052 221.141 57.872 218.938 56.456C215.477 54.9613 213.038 53.1127 211.622 50.91C210.285 48.6287 209.616 45.8753 209.616 42.65C209.616 37.1433 212.212 32.6593 217.404 29.198C222.675 25.658 229.479 23.888 237.818 23.888ZM360.781 63.3C360.781 67.784 360.23 71.3633 359.129 74.038C358.027 76.634 356.493 78.4433 354.527 79.466C352.639 80.4887 350.121 81 346.975 81C342.333 81 338.951 79.7807 336.827 77.342C334.781 74.8247 333.719 70.4193 333.641 64.126L333.405 20.584H323.375C318.419 20.584 314.682 19.7973 312.165 18.224C309.726 16.6507 308.507 13.858 308.507 9.84599C308.507 7.40733 308.979 5.48 309.923 4.064C310.945 2.648 312.44 1.66466 314.407 1.11399C316.373 0.48466 319.009 0.169993 322.313 0.169993H372.817C377.222 0.169993 380.408 0.956661 382.375 2.53C384.341 4.10333 385.325 6.81733 385.325 10.672C385.325 13.268 384.735 15.3133 383.555 16.808C382.453 18.224 380.959 19.2073 379.071 19.758C377.183 20.3087 374.744 20.584 371.755 20.584H360.781V63.3ZM398.53 81.708C392.316 81.708 387.163 79.1907 383.072 74.156C378.982 69.0427 376.936 62.0807 376.936 53.27C376.936 44.302 378.942 37.1827 382.954 31.912C387.045 26.5627 392.237 23.888 398.53 23.888C404.902 23.888 410.802 26.13 416.23 30.614C418.354 26.6807 421.776 24.714 426.496 24.714C430.744 24.714 434.048 25.658 436.408 27.546C438.768 29.3553 439.948 32.738 439.948 37.694V68.374C439.948 73.094 438.965 76.398 436.998 78.286C435.032 80.0953 431.57 81 426.614 81C421.422 81 418 79.5447 416.348 76.634C411.314 80.0167 405.374 81.708 398.53 81.708ZM414.578 41.942C413.241 39.6607 411.51 38.52 409.386 38.52C407.341 38.52 405.689 40.0147 404.43 43.004C403.172 45.9933 402.542 49.4153 402.542 53.27C402.542 56.8887 403.132 60.114 404.312 62.946C405.492 65.778 407.144 67.194 409.268 67.194C411.471 67.194 413.241 66.132 414.578 64.008V41.942ZM477.003 63.182C477.003 69.554 475.941 74.1167 473.817 76.87C471.693 79.6233 468.429 81 464.023 81C459.618 81 456.393 79.7807 454.347 77.342C452.302 74.8247 451.279 70.4193 451.279 64.126L451.043 14.33C451.043 12.2847 451.24 10.4753 451.633 8.902C452.105 7.32866 452.695 5.99133 453.403 4.89C454.19 3.78866 455.134 2.884 456.235 2.17599C457.337 1.46799 458.517 0.956661 459.775 0.641994C461.113 0.327326 462.529 0.169993 464.023 0.169993C468.35 0.169993 471.575 1.03533 473.699 2.76599C475.902 4.49666 477.003 7.99733 477.003 13.268V63.182ZM519.163 64.244H514.915C514.915 68.3347 513.735 72.15 511.375 75.69C509.015 79.23 505.869 81 501.935 81C497.53 81 494.265 79.7807 492.141 77.342C490.096 74.8247 489.073 70.4193 489.073 64.126V15.628C489.073 12.2453 489.624 9.53133 490.725 7.486C491.827 5.362 493.243 3.86733 494.973 3.002C496.783 2.13666 499.103 1.62533 501.935 1.468C506.813 1.468 510.077 3.12 511.729 6.424C513.381 9.64933 514.207 15.274 514.207 23.298C514.207 29.5127 513.853 34.98 513.145 39.7C513.696 41.4307 515.466 42.296 518.455 42.296C520.343 42.296 521.602 41.9027 522.231 41.116C522.939 40.2507 523.293 38.5593 523.293 36.042C523.293 32.3447 524.237 29.67 526.125 28.018C528.092 26.366 531.396 25.54 536.037 25.54C540.915 25.54 544.179 26.4447 545.831 28.254C547.562 29.9847 548.427 33.1707 548.427 37.812C548.427 42.6893 546.972 46.4653 544.061 49.14C541.151 51.8147 537.886 53.152 534.267 53.152C537.965 53.152 541.229 54.2927 544.061 56.574C546.972 58.7767 548.427 62.12 548.427 66.604C548.427 72.5827 547.601 76.4767 545.949 78.286C544.376 80.0953 541.072 81 536.037 81C531.396 81 528.092 80.174 526.125 78.522C524.237 76.7913 523.293 74.1167 523.293 70.498C523.293 68.6887 523.136 67.3513 522.821 66.486C522.507 65.542 522.074 64.952 521.523 64.716C521.051 64.4013 520.265 64.244 519.163 64.244Z" fill="#FAFF00"/>
</g>
<defs>
<filter id="filter0_d_6_44" x="0.782013" y="0.169991" width="555.645" height="97.656" filterUnits="userSpaceOnUse" color-interpolation-filters="sRGB">
<feFlood flood-opacity="0" result="BackgroundImageFix"/>
<feColorMatrix in="SourceAlpha" type="matrix" values="0 0 0 0 0 0 0 0 0 0 0 0 0 0 0 0 0 0 127 0" result="hardAlpha"/>
<feOffset dy="8"/>
<feGaussianBlur stdDeviation="4"/>
<feComposite in2="hardAlpha" operator="out"/>
<feColorMatrix type="matrix" values="0 0 0 0 0 0 0 0 0 0 0 0 0 0 0 0 0 0 0.3 0"/>
<feBlend mode="normal" in2="BackgroundImageFix" result="effect1_dropShadow_6_44"/>
<feBlend mode="normal" in="SourceGraphic" in2="effect1_dropShadow_6_44" result="shape"/>
</filter>
</defs>
</svg>
