<svg width="28" height="28" viewBox="0 0 28 28" fill="none" xmlns="http://www.w3.org/2000/svg">
<path d="M22.8779 15.6171H15.6171V22.8779C15.6171 23.6765 14.9637 24.33 14.165 24.33C13.3663 24.33 12.7129 23.6765 12.7129 22.8779V15.6171H5.45214C4.65346 15.6171 4 14.9637 4 14.165C4 13.3663 4.65346 12.7129 5.45214 12.7129H12.7129V5.45214C12.7129 4.65346 13.3663 4 14.165 4C14.9637 4 15.6171 4.65346 15.6171 5.45214V12.7129H22.8779C23.6765 12.7129 24.33 13.3663 24.33 14.165C24.33 14.9637 23.6765 15.6171 22.8779 15.6171Z" fill="#6AB576"/>
</svg>
