<svg width="24" height="24" viewBox="0 0 24 24" fill="none" xmlns="http://www.w3.org/2000/svg">
<path d="M13.0305 1.89341C12.752 1.63011 12.3833 1.4834 12 1.4834C11.6167 1.4834 11.248 1.63011 10.9695 1.89341L3.7035 8.76041C3.48102 8.97094 3.30387 9.22468 3.1829 9.50608C3.06194 9.78748 2.9997 10.0906 3 10.3969V18.7519C3.0004 19.3484 3.23763 19.9203 3.65954 20.3419C4.08145 20.7636 4.65352 21.0004 5.25 21.0004H7.5C8.09674 21.0004 8.66903 20.7634 9.09099 20.3414C9.51295 19.9194 9.75 19.3472 9.75 18.7504V15.0004C9.75 14.8015 9.82902 14.6107 9.96967 14.4701C10.1103 14.3294 10.3011 14.2504 10.5 14.2504H13.5C13.6989 14.2504 13.8897 14.3294 14.0303 14.4701C14.171 14.6107 14.25 14.8015 14.25 15.0004V18.7504C14.25 19.3472 14.4871 19.9194 14.909 20.3414C15.331 20.7634 15.9033 21.0004 16.5 21.0004H18.75C19.3467 21.0004 19.919 20.7634 20.341 20.3414C20.7629 19.9194 21 19.3472 21 18.7504V10.3954C20.9999 10.0893 20.9373 9.78634 20.8161 9.50521C20.6949 9.22408 20.5176 8.97064 20.295 8.76041L13.0305 1.89341Z" fill="#FEFEFE"/>
</svg>
