<svg width="26" height="26" viewBox="0 0 26 26" fill="none" xmlns="http://www.w3.org/2000/svg">
<path d="M3.71014 2.7898C3.64971 2.72936 3.57796 2.68143 3.499 2.64872C3.42004 2.61601 3.33541 2.59918 3.24994 2.59918C3.16448 2.59918 3.07985 2.61601 3.00088 2.64872C2.92192 2.68143 2.85018 2.72936 2.78974 2.7898C2.72931 2.85023 2.68137 2.92198 2.64866 3.00094C2.61596 3.0799 2.59912 3.16453 2.59912 3.25C2.59912 3.33547 2.61596 3.4201 2.64866 3.49906C2.68137 3.57802 2.72931 3.64977 2.78974 3.7102L7.33974 8.2576C5.08629 9.79463 3.51749 12.1464 2.96394 14.8174C2.94653 14.901 2.94575 14.9871 2.96164 15.071C2.97753 15.1549 3.00978 15.2348 3.05656 15.3062C3.10334 15.3776 3.16372 15.4391 3.23427 15.4872C3.30481 15.5352 3.38413 15.5689 3.46769 15.5864C3.55126 15.6038 3.63744 15.6045 3.72131 15.5887C3.80518 15.5728 3.88509 15.5405 3.9565 15.4937C4.0279 15.447 4.08939 15.3866 4.13746 15.316C4.18553 15.2455 4.21923 15.1662 4.23664 15.0826C4.4848 13.882 4.96996 12.743 5.66373 11.7323C6.35751 10.7215 7.24595 9.85936 8.27704 9.1962L10.3349 11.2528C9.7986 11.6375 9.35238 12.1343 9.02723 12.7087C8.70209 13.2831 8.50582 13.9214 8.45203 14.5792C8.39823 15.2371 8.48822 15.8988 8.71573 16.5184C8.94324 17.138 9.30283 17.7007 9.76956 18.1674C10.2363 18.6341 10.799 18.9937 11.4186 19.2212C12.0382 19.4487 12.6998 19.5387 13.3577 19.4849C14.0155 19.4311 14.6538 19.2349 15.2282 18.9097C15.8026 18.5846 16.2994 18.1383 16.6841 17.602L22.291 23.2102C22.4131 23.3323 22.5786 23.4008 22.7512 23.4008C22.9239 23.4008 23.0894 23.3323 23.2114 23.2102C23.3335 23.0882 23.4021 22.9226 23.4021 22.75C23.4021 22.5774 23.3335 22.4119 23.2114 22.2898L3.71014 2.7898ZM13.1611 10.4039L17.533 14.7758C17.489 13.6304 17.0143 12.5438 16.2037 11.7332C15.3932 10.9227 14.3066 10.4479 13.1611 10.4039ZM9.78894 7.033L10.8328 8.0769C11.5405 7.89308 12.2688 7.80003 12.9999 7.8C17.1677 7.8 20.874 10.8251 21.7619 15.0826C21.7971 15.2515 21.898 15.3996 22.0423 15.4942C22.1866 15.5888 22.3626 15.6222 22.5315 15.587C22.7005 15.5518 22.8485 15.451 22.9431 15.3067C23.0377 15.1623 23.0711 14.9863 23.0359 14.8174C22.0258 9.9749 17.8008 6.5 12.9999 6.5C11.8884 6.5 10.8055 6.6859 9.78894 7.033Z" fill="#636363"/>
</svg>
