<svg width="20" height="20" viewBox="0 0 20 20" fill="none" xmlns="http://www.w3.org/2000/svg">
<g clip-path="url(#clip0_389_1804)">
<path d="M10 0C12.6522 0 15.1957 1.05357 17.0711 2.92893C18.9464 4.8043 20 7.34784 20 10C20 12.6522 18.9464 15.1957 17.0711 17.0711C15.1957 18.9464 12.6522 20 10 20C7.34784 20 4.8043 18.9464 2.92893 17.0711C1.05357 15.1957 0 12.6522 0 10C0 7.34784 1.05357 4.8043 2.92893 2.92893C4.8043 1.05357 7.34784 0 10 0ZM1.875 10C1.875 12.1549 2.73102 14.2215 4.25476 15.7452C5.77849 17.269 7.84512 18.125 10 18.125C12.1549 18.125 14.2215 17.269 15.7452 15.7452C17.269 14.2215 18.125 12.1549 18.125 10C18.125 7.84512 17.269 5.77849 15.7452 4.25476C14.2215 2.73102 12.1549 1.875 10 1.875C7.84512 1.875 5.77849 2.73102 4.25476 4.25476C2.73102 5.77849 1.875 7.84512 1.875 10ZM7.97375 6.53375L13.3037 9.7325C13.3498 9.76032 13.3879 9.79956 13.4144 9.84643C13.4408 9.89329 13.4547 9.94619 13.4547 10C13.4547 10.0538 13.4408 10.1067 13.4144 10.1536C13.3879 10.2004 13.3498 10.2397 13.3037 10.2675L7.97375 13.4662C7.92635 13.4948 7.87223 13.5103 7.8169 13.511C7.76157 13.5118 7.70703 13.4979 7.65885 13.4707C7.61067 13.4435 7.57057 13.404 7.54267 13.3562C7.51476 13.3084 7.50003 13.2541 7.5 13.1987V6.8025C7.49981 6.74706 7.51437 6.69257 7.54219 6.64462C7.57001 6.59667 7.61009 6.55698 7.65831 6.52962C7.70652 6.50227 7.76115 6.48823 7.81659 6.48896C7.87202 6.48969 7.92626 6.50514 7.97375 6.53375Z" fill="#D48C00"/>
</g>
<defs>
<clipPath id="clip0_389_1804">
<rect width="20" height="20" fill="white"/>
</clipPath>
</defs>
</svg>
