<svg width="30" height="30" viewBox="0 0 30 30" fill="none" xmlns="http://www.w3.org/2000/svg">
<path d="M5 25C4.3125 25 3.72417 24.7554 3.235 24.2663C2.74583 23.7771 2.50083 23.1883 2.5 22.5V7.5C2.5 6.8125 2.745 6.22417 3.235 5.735C3.725 5.24583 4.31333 5.00083 5 5H25C25.6875 5 26.2763 5.245 26.7663 5.735C27.2563 6.225 27.5008 6.81333 27.5 7.5V22.5C27.5 23.1875 27.2554 23.7763 26.7663 24.2663C26.2771 24.7563 25.6883 25.0008 25 25H5ZM8.125 18.75H9.5625V11.25H8.4375L6.25 12.8125L7 13.9375L8.125 13.125V18.75ZM12 18.75H16.875V17.5H13.9375L13.875 17.4375C14.3125 17.0208 14.6721 16.6667 14.9538 16.375C15.2354 16.0833 15.4592 15.8542 15.625 15.6875C16 15.3125 16.2812 14.9375 16.4688 14.5625C16.6562 14.1875 16.75 13.7917 16.75 13.375C16.75 12.7708 16.5208 12.2654 16.0625 11.8588C15.6042 11.4521 15.0208 11.2492 14.3125 11.25C13.7708 11.25 13.2812 11.4062 12.8438 11.7188C12.4062 12.0312 12.1042 12.4375 11.9375 12.9375L13.1875 13.4375C13.2917 13.1667 13.4429 12.9529 13.6413 12.7963C13.8396 12.6396 14.0633 12.5617 14.3125 12.5625C14.625 12.5625 14.8804 12.6458 15.0787 12.8125C15.2771 12.9792 15.3758 13.1875 15.375 13.4375C15.375 13.6667 15.3333 13.8804 15.25 14.0787C15.1667 14.2771 14.9792 14.5217 14.6875 14.8125L13.6875 15.8125L12 17.5V18.75ZM21.25 18.75C22 18.75 22.6042 18.5417 23.0625 18.125C23.5208 17.7083 23.75 17.1667 23.75 16.5C23.75 16.125 23.6458 15.7917 23.4375 15.5C23.2292 15.2083 22.9375 14.9792 22.5625 14.8125V14.75C22.8542 14.5833 23.0833 14.3696 23.25 14.1087C23.4167 13.8479 23.5 13.5408 23.5 13.1875C23.5 12.625 23.2812 12.1613 22.8438 11.7963C22.4062 11.4313 21.8542 11.2492 21.1875 11.25C20.6667 11.25 20.1825 11.4012 19.735 11.7037C19.2875 12.0062 19.0008 12.3758 18.875 12.8125L20.125 13.3125C20.2083 13.0625 20.3437 12.8646 20.5312 12.7188C20.7188 12.5729 20.9375 12.5 21.1875 12.5C21.4583 12.5 21.6825 12.5783 21.86 12.735C22.0375 12.8917 22.1258 13.0842 22.125 13.3125C22.125 13.6042 22.0208 13.8333 21.8125 14C21.6042 14.1667 21.3333 14.25 21 14.25H20.4375V15.5H21.0625C21.4792 15.5 21.8021 15.5833 22.0312 15.75C22.2604 15.9167 22.375 16.1458 22.375 16.4375C22.375 16.7083 22.2604 16.9429 22.0312 17.1413C21.8021 17.3396 21.5417 17.4383 21.25 17.4375C20.8958 17.4375 20.625 17.3596 20.4375 17.2037C20.25 17.0479 20.0833 16.7717 19.9375 16.375L18.6875 16.875C18.8333 17.4792 19.1304 17.9429 19.5788 18.2662C20.0271 18.5896 20.5842 18.7508 21.25 18.75Z" fill="#D48C00"/>
</svg>
