<svg width="26" height="26" viewBox="0 0 26 26" fill="none" xmlns="http://www.w3.org/2000/svg">
<path d="M22.5116 14.1538C22.5664 14.3246 22.6867 14.4666 22.8461 14.5489C23.0055 14.6311 23.1911 14.6468 23.362 14.5925C23.7141 14.4788 23.9145 14.0996 23.8008 13.7421L23.8002 13.7405C23.752 13.5958 21.0388 5.41667 12.9994 5.41667C4.96161 5.41667 2.24786 13.5958 2.20019 13.741L2.19965 13.7421C2.0859 14.0996 2.2809 14.4788 2.6384 14.5925C2.9959 14.7063 3.37506 14.5113 3.48881 14.1538C3.58631 13.8504 5.93173 6.77083 13.0005 6.77083C20.0692 6.77083 22.4141 13.8504 22.5116 14.1538ZM12.9999 19.5C14.2929 19.5 15.5328 18.9864 16.4471 18.0721C17.3613 17.1579 17.8749 15.9179 17.8749 14.625C17.8749 13.3321 17.3613 12.0921 16.4471 11.1779C15.5328 10.2636 14.2929 9.75 12.9999 9.75C11.707 9.75 10.467 10.2636 9.55279 11.1779C8.63855 12.0921 8.12494 13.3321 8.12494 14.625C8.12494 15.9179 8.63855 17.1579 9.55279 18.0721C10.467 18.9864 11.707 19.5 12.9999 19.5Z" fill="#636363"/>
</svg>
