<svg width="54" height="54" viewBox="0 0 54 54" fill="none" xmlns="http://www.w3.org/2000/svg">
<g clip-path="url(#clip0_389_1916)">
<path d="M45.0035 27C45.0035 19.5117 40.4262 13.0992 33.9293 10.3887L32.1996 14.5441C37.0723 16.5797 40.5 21.3891 40.5 27C40.5 32.6215 37.0723 37.4203 32.1891 39.4559L33.9188 43.6113C40.4262 40.9008 45.0035 34.4883 45.0035 27ZM35.9965 27C35.9965 23.2559 33.7078 20.0496 30.4594 18.6996L28.7297 22.8551C30.3539 23.5301 31.493 25.1332 31.493 27.0105C31.493 28.8773 30.3539 30.4805 28.7297 31.166L30.4594 35.3215C33.7078 33.9504 35.9965 30.7441 35.9965 27ZM37.3887 2.07773L35.6484 6.2332C43.7801 9.61875 49.4965 17.6344 49.4965 27C49.4965 36.3551 43.7801 44.3812 35.6484 47.7668L37.3781 51.9223C47.1445 47.8512 54 38.2324 54 27C54 15.7676 47.1445 6.14883 37.3887 2.07773ZM0 15.7465V38.243H8.99648L24.7535 54V0L8.99648 15.7465H0Z" fill="#D48C00"/>
</g>
<defs>
<clipPath id="clip0_389_1916">
<rect width="54" height="54" fill="white"/>
</clipPath>
</defs>
</svg>
