<svg width="80" height="80" viewBox="0 0 80 80" fill="none" xmlns="http://www.w3.org/2000/svg">
<rect width="80" height="80" rx="40" fill="#FFC7F9"/>
<path d="M55.8019 58.2865V59.5052C55.8033 60.7972 55.2918 62.037 54.3796 62.952C53.4675 63.8671 52.2294 64.3827 50.9374 64.3854H28.7342C28.0931 64.3861 27.4582 64.2603 26.8658 64.0153C26.2734 63.7703 25.7352 63.4109 25.2819 62.9576C24.8286 62.5043 24.4691 61.966 24.2241 61.3736C23.9791 60.7812 23.8533 60.1463 23.854 59.5052V58.2865C23.8554 54.7866 25.2463 51.4304 27.7211 48.9556C30.1959 46.4808 33.552 45.0899 37.0519 45.0885H42.604C46.1039 45.0899 49.46 46.4808 51.9348 48.9556C54.4096 51.4304 55.8006 54.7866 55.8019 58.2865Z" fill="#109CD7"/>
<path d="M54.4894 57.9219V59.0417C54.4894 60.2297 54.0175 61.369 53.1775 62.209C52.3375 63.049 51.1982 63.5209 50.0103 63.5209H29.6457C28.4577 63.5209 27.3184 63.049 26.4784 62.209C25.6384 61.369 25.1665 60.2297 25.1665 59.0417V57.9219C25.1693 54.7103 26.4467 51.631 28.7181 49.3605C30.9896 47.09 34.0694 45.8139 37.2811 45.8125H42.3748C45.5865 45.8139 48.6663 47.09 50.9378 49.3605C53.2092 51.631 54.4867 54.7103 54.4894 57.9219Z" fill="#56BAEB"/>
<path d="M29.6092 55.1042C29.2346 55.1001 28.8629 55.1698 28.5154 55.3095C28.1678 55.4492 27.8512 55.6561 27.5837 55.9183C27.3161 56.1805 27.1029 56.4929 26.9563 56.8376C26.8096 57.1823 26.7324 57.5525 26.729 57.9271V59.0469C26.729 59.8204 27.0363 60.5623 27.5833 61.1093C28.1303 61.6563 28.8721 61.9636 29.6457 61.9636H50.0102C50.7838 61.9636 51.5257 61.6563 52.0726 61.1093C52.6196 60.5623 52.9269 59.8204 52.9269 59.0469C52.9269 59.0469 52.9269 57.9219 52.9269 57.9011C52.9132 57.1491 52.6027 56.433 52.0632 55.9091C51.5236 55.3851 50.7988 55.0958 50.0467 55.1042H29.6092Z" fill="#7EECFF"/>
<path d="M46.7707 45.3594V51.9792C46.7707 53.8205 46.0392 55.5864 44.7372 56.8884C43.4352 58.1904 41.6693 58.9219 39.828 58.9219C37.9866 58.9219 36.2207 58.1904 34.9187 56.8884C33.6167 55.5864 32.8853 53.8205 32.8853 51.9792V45.3594C34.6405 45 34.9321 45.0885 44.1092 45.0885C45.0032 45.0891 45.8949 45.1799 46.7707 45.3594Z" fill="#383D73"/>
<path d="M43.875 45.0885V51.9792C43.8775 52.7016 43.6831 53.4111 43.3125 54.0312C42.9557 54.6383 42.4465 55.1416 41.8354 55.4913C41.2242 55.841 40.5323 56.0249 39.8282 56.0249C39.124 56.0249 38.4321 55.841 37.8209 55.4913C37.2098 55.1416 36.7006 54.6383 36.3438 54.0312C35.9732 53.4111 35.7788 52.7016 35.7813 51.9792V45.0885H43.875Z" fill="#FBAB9A"/>
<path d="M43.9481 53.9063C44.2313 53.8574 44.5226 53.8949 44.7843 54.0138C45.0459 54.1327 45.2657 54.3275 45.4151 54.573C45.5645 54.8185 45.6366 55.1032 45.6221 55.3902C45.6075 55.6772 45.507 55.9532 45.3335 56.1823C44.6858 57.027 43.8523 57.7114 42.8977 58.1823C41.943 58.6533 40.8928 58.8982 39.8283 58.8982C38.7638 58.8982 37.7136 58.6533 36.759 58.1823C35.8043 57.7114 34.9709 57.027 34.3231 56.1823C34.1496 55.9532 34.0491 55.6772 34.0346 55.3902C34.02 55.1032 34.0921 54.8185 34.2415 54.573C34.391 54.3275 34.6108 54.1327 34.8724 54.0138C35.134 53.8949 35.4253 53.8574 35.7085 53.9063C36.0755 53.9555 36.4104 54.1415 36.646 54.4271C37.0235 54.9109 37.5063 55.3022 38.0577 55.5714C38.6092 55.8405 39.2147 55.9804 39.8283 55.9804C40.4419 55.9804 41.0475 55.8405 41.5989 55.5714C42.1503 55.3022 42.6331 54.9109 43.0106 54.4271C43.2456 54.1407 43.5808 53.9545 43.9481 53.9063Z" fill="#475687"/>
<path d="M22.0729 37.8386C25.0041 37.8386 27.3802 35.614 27.3802 32.8698C27.3802 30.1256 25.0041 27.9011 22.0729 27.9011C19.1418 27.9011 16.7656 30.1256 16.7656 32.8698C16.7656 35.614 19.1418 37.8386 22.0729 37.8386Z" fill="#FBAB9A"/>
<path d="M57.5832 37.8386C60.5143 37.8386 62.8905 35.614 62.8905 32.8698C62.8905 30.1256 60.5143 27.9011 57.5832 27.9011C54.652 27.9011 52.2759 30.1256 52.2759 32.8698C52.2759 35.614 54.652 37.8386 57.5832 37.8386Z" fill="#FBAB9A"/>
<path d="M43.875 45.0885V51.9792C43.8775 52.7016 43.6831 53.4111 43.3125 54.0312C41.0012 54.3593 38.6551 54.3593 36.3438 54.0312C35.9732 53.4111 35.7788 52.7016 35.7813 51.9792V45.0885H43.875Z" fill="#FB9281"/>
<path d="M58.5363 32.8698C58.5363 42.375 50.1613 50.0833 39.828 50.0833C29.4946 50.0833 21.1196 42.375 21.1196 32.8958C21.1196 24.0416 28.3332 16.8854 37.4009 15.8229C48.3332 14.4375 58.5363 22.2604 58.5363 32.8698Z" fill="#FBC9BD"/>
<path d="M58.0262 28.8646C56.5212 26.3352 54.4889 24.1597 52.0677 22.4862C49.6464 20.8127 46.893 19.6805 43.995 19.1667C34.7918 17.4115 25.8022 21.5729 21.6304 28.8646C23.3804 22.0937 29.3856 17.1979 36.1252 15.9896C45.9272 14.0833 55.7085 19.8698 58.0262 28.8646Z" fill="#FBE2D6"/>
<path d="M39.8283 50.0833C29.2033 50.0833 20.4637 41.8854 21.1617 31.7031C21.8231 40.6615 29.9273 47.7396 39.8283 47.7396C49.7293 47.7396 57.8179 40.6771 58.4898 31.7292C59.271 41.3073 50.9377 50.0833 39.8283 50.0833Z" fill="#FBBAAE"/>
<path d="M41.7138 27.375C39.5549 27.134 37.5158 26.2589 35.8538 24.8602C34.1917 23.4614 32.9813 21.6016 32.3752 19.5156C32.201 18.8934 32.2787 18.2276 32.5916 17.6623C32.9045 17.097 33.4274 16.6776 34.0471 16.4948C36.1092 15.8648 38.2623 15.5849 40.4169 15.6667C40.2347 17.2245 40.3898 18.8033 40.8714 20.2959C41.3531 21.7886 42.1502 23.1602 43.2086 24.3177C43.4655 24.5856 43.6339 24.9259 43.6911 25.2926C43.7484 25.6593 43.6916 26.0348 43.5286 26.3682C43.3656 26.7017 43.1041 26.977 42.7795 27.1571C42.455 27.3371 42.083 27.4132 41.7138 27.375Z" fill="#DC8558"/>
<path d="M46.021 20.0365C46.1785 20.1795 46.2885 20.3673 46.3361 20.5747C46.3837 20.7821 46.3666 20.9991 46.2872 21.1965C46.2078 21.3939 46.0698 21.5622 45.8919 21.6789C45.7139 21.7955 45.5045 21.8549 45.2918 21.849C43.4933 21.8489 41.7451 21.2559 40.3177 20.1618C38.8903 19.0677 37.8634 17.5336 37.396 15.7969C39.4779 15.546 41.5861 15.618 43.646 16.0104C44.0239 17.557 44.8501 18.9576 46.021 20.0365Z" fill="#F09958"/>
<path d="M40.5208 18.7656C37.8123 18.6798 35.1111 19.093 32.552 19.9844C32.4947 19.8281 32.4478 19.6719 32.401 19.5104C32.2269 18.8889 32.3048 18.2238 32.6177 17.6593C32.9307 17.0948 33.4535 16.6764 34.0728 16.4948C34.9396 16.2399 35.8216 16.0399 36.7135 15.8958C37.9185 15.7014 39.1393 15.6229 40.3593 15.6614H40.4687C40.3397 16.6935 40.3572 17.7385 40.5208 18.7656Z" fill="#F09958"/>
<path d="M45.4689 19.4739C43.3278 18.9186 41.1166 18.6816 38.9064 18.7708C38.2014 17.8955 37.687 16.8825 37.396 15.7969C39.478 15.5482 41.5858 15.6203 43.646 16.0104C43.9569 17.2983 44.5833 18.4886 45.4689 19.4739Z" fill="#F0BC7B"/>
<path d="M58.2811 27.3802C55.255 18.8021 45.729 13.7448 36.7342 15.3802C36.6561 15.3802 36.2498 15.4479 36.2134 15.4635C29.7342 16.6198 23.953 21.0521 21.7134 27.3802C18.7498 27.6354 16.4165 29.9844 16.4165 32.8489C16.4565 34.2576 17.0215 35.6004 18.0004 36.6141C18.9794 37.6278 20.3018 38.2391 21.7082 38.3281C23.0595 42.0441 25.5939 45.2134 28.9217 47.3489C27.2372 48.6315 25.8718 50.2859 24.9322 52.1832C23.9926 54.0805 23.5042 56.1692 23.505 58.2864V59.5104C23.5119 60.9393 24.0837 62.3075 25.0955 63.3164C26.1074 64.3253 27.4772 64.8931 28.9061 64.8958H51.0936C52.5252 64.8931 53.8973 64.3231 54.9096 63.3108C55.9219 62.2985 56.4918 60.9264 56.4946 59.4948V58.2708C56.4955 56.1536 56.007 54.0649 55.0674 52.1676C54.1278 50.2703 52.7625 48.6158 51.0779 47.3333C54.4031 45.2018 56.9372 42.0383 58.2915 38.3281C59.6979 38.2391 61.0202 37.6278 61.9992 36.6141C62.9782 35.6004 63.5431 34.2576 63.5831 32.8489C63.5831 29.9948 61.2498 27.6354 58.2811 27.3802ZM41.0415 16.1979C41.8175 16.2299 42.5903 16.3169 43.354 16.4583C43.798 17.9778 44.6522 19.3456 45.8227 20.4115C45.9028 20.4838 45.9583 20.5792 45.9818 20.6845C46.0053 20.7898 45.9954 20.8998 45.9537 20.9993C45.912 21.0988 45.8404 21.1828 45.7488 21.2399C45.6572 21.2969 45.5502 21.3241 45.4425 21.3177C43.8692 21.3126 42.3356 20.8228 41.0505 19.9151C39.7654 19.0075 38.7911 17.7259 38.2602 16.2448C39.1845 16.1537 40.1147 16.138 41.0415 16.1979ZM37.1821 16.3646C37.7913 18.2559 39.0374 19.8775 40.7082 20.9531C41.2161 22.3239 41.9876 23.5819 42.979 24.6562C43.1621 24.8461 43.283 25.0872 43.3255 25.3475C43.368 25.6078 43.3302 25.8749 43.217 26.1131C43.1038 26.3513 42.9207 26.5494 42.6921 26.6809C42.4634 26.8123 42.2001 26.871 41.9373 26.8489C39.8844 26.6096 37.9471 25.772 36.3663 24.4404C34.7856 23.1088 33.6312 21.3419 33.0467 19.3594C32.9113 18.8691 32.9742 18.3452 33.2217 17.9009C33.4692 17.4566 33.8815 17.1274 34.3696 16.9844C35.2953 16.6998 36.243 16.4925 37.2029 16.3646H37.1821ZM17.4582 32.8489C17.4916 31.7767 17.9021 30.7506 18.6176 29.9513C19.3331 29.152 20.3076 28.6307 21.3696 28.4792C20.5752 31.3417 20.5752 34.3666 21.3696 37.2292C20.3059 37.0773 19.33 36.5545 18.6143 35.7531C17.8986 34.9516 17.4891 33.923 17.4582 32.8489ZM55.479 58.2708V59.4948C55.479 60.0694 55.3654 60.6385 55.1447 61.1691C54.924 61.6997 54.6005 62.1814 54.193 62.5866C53.7854 62.9917 53.3017 63.3123 52.7698 63.5298C52.2379 63.7473 51.6682 63.8576 51.0936 63.8541H28.9061C27.7499 63.8541 26.6411 63.3948 25.8235 62.5773C25.006 61.7598 24.5467 60.6509 24.5467 59.4948V58.2708C24.5464 56.2472 25.031 54.253 25.9598 52.4552C26.8886 50.6573 28.2347 49.1082 29.8852 47.9375C30.7383 48.4207 31.6242 48.8436 32.5363 49.2031V51.9427C32.5363 53.9221 33.3226 55.8205 34.7223 57.2202C36.122 58.6199 38.0204 59.4062 39.9998 59.4062C41.9793 59.4062 43.8777 58.6199 45.2773 57.2202C46.677 55.8205 47.4634 53.9221 47.4634 51.9427V49.2031C48.3755 48.8436 49.2613 48.4207 50.1144 47.9375C51.7649 49.1082 53.111 50.6573 54.0398 52.4552C54.9686 54.253 55.4532 56.2472 55.4529 58.2708H55.479ZM36.4738 50.2916C38.8076 50.6902 41.1921 50.6902 43.5259 50.2916V51.9427C43.5259 52.8779 43.1544 53.7747 42.4931 54.436C41.8318 55.0972 40.935 55.4687 39.9998 55.4687C39.0647 55.4687 38.1678 55.0972 37.5065 54.436C36.8453 53.7747 36.4738 52.8779 36.4738 51.9427V50.2916ZM39.9998 56.5104C41.2104 56.5076 42.3706 56.0255 43.2266 55.1695C44.0827 54.3135 44.5648 53.1533 44.5675 51.9427V50.0885C45.1977 49.9479 45.8175 49.7708 46.4217 49.5677V51.9323C46.4217 53.6355 45.7451 55.2689 44.5408 56.4732C43.3364 57.6776 41.703 58.3541 39.9998 58.3541C38.2966 58.3541 36.6632 57.6776 35.4589 56.4732C34.2545 55.2689 33.5779 53.6355 33.5779 51.9323V49.5781C34.1821 49.7708 34.8019 49.9479 35.4321 50.0989V51.9531C35.4376 53.1619 35.9209 54.3194 36.7767 55.1732C37.6324 56.027 38.791 56.5077 39.9998 56.5104ZM35.4321 49.0208C25.6873 46.6823 19.7394 37.4375 22.4738 28.4114C23.2237 26.0538 24.4737 23.8859 26.1384 22.0558C27.8031 20.2256 29.8434 18.7765 32.1196 17.8073C31.8972 18.3961 31.8716 19.0412 32.0467 19.6458C32.689 21.8268 33.9589 23.7706 35.6983 25.2348C37.4376 26.6991 39.5694 27.6191 41.8279 27.8802C42.3026 27.9304 42.7812 27.8338 43.1993 27.6035C43.6174 27.3732 43.9547 27.0202 44.1659 26.5922C44.3771 26.1642 44.4519 25.6816 44.3803 25.2097C44.3087 24.7378 44.0941 24.2992 43.7654 23.9531C43.1498 23.2793 42.6246 22.5282 42.2029 21.7187C43.248 22.1447 44.3661 22.3623 45.4946 22.3594C45.8103 22.3587 46.1185 22.2623 46.3784 22.083C46.6383 21.9037 46.8377 21.6499 46.9505 21.355C47.0633 21.0601 47.0841 20.7379 47.0101 20.4309C46.9362 20.124 46.771 19.8466 46.5363 19.6354C45.6459 18.8289 44.9634 17.8194 44.5467 16.6927C52.4998 18.5573 58.1873 25.2187 58.1873 32.8489C58.1873 43.4271 47.4321 51.7448 35.4321 49.0208ZM58.6352 37.2292C59.4347 34.3673 59.4347 31.341 58.6352 28.4792C59.6982 28.6295 60.6739 29.1504 61.3905 29.9498C62.107 30.7492 62.5183 31.7759 62.5519 32.8489C62.5207 33.9238 62.1105 34.953 61.3937 35.7546C60.677 36.5561 59.6999 37.0784 58.6352 37.2292Z" fill="#302D3D"/>
<path d="M32.7552 32.4896C32.6171 32.4896 32.4846 32.5444 32.3869 32.6421C32.2892 32.7398 32.2344 32.8723 32.2344 33.0104V34.1354C32.2344 34.2735 32.2892 34.406 32.3869 34.5037C32.4846 34.6014 32.6171 34.6562 32.7552 34.6562C32.8933 34.6562 33.0258 34.6014 33.1235 34.5037C33.2212 34.406 33.276 34.2735 33.276 34.1354V33.0104C33.276 32.8723 33.2212 32.7398 33.1235 32.6421C33.0258 32.5444 32.8933 32.4896 32.7552 32.4896ZM47.2448 32.4896C47.1067 32.4896 46.9742 32.5444 46.8765 32.6421C46.7788 32.7398 46.724 32.8723 46.724 33.0104V34.1354C46.724 34.2735 46.7788 34.406 46.8765 34.5037C46.9742 34.6014 47.1067 34.6562 47.2448 34.6562C47.3829 34.6562 47.5154 34.6014 47.6131 34.5037C47.7107 34.406 47.7656 34.2735 47.7656 34.1354V33.0104C47.7656 32.8723 47.7107 32.7398 47.6131 32.6421C47.5154 32.5444 47.3829 32.4896 47.2448 32.4896ZM42.3333 39.8698C42.026 40.1784 41.6608 40.4234 41.2586 40.5905C40.8564 40.7576 40.4251 40.8436 39.9896 40.8436C39.554 40.8436 39.1228 40.7576 38.7206 40.5905C38.3184 40.4234 37.9531 40.1784 37.6458 39.8698C37.5974 39.821 37.5398 39.7822 37.4763 39.7558C37.4129 39.7293 37.3448 39.7157 37.276 39.7157C37.2073 39.7157 37.1392 39.7293 37.0757 39.7558C37.0123 39.7822 36.9547 39.821 36.9062 39.8698C36.8108 39.9671 36.7574 40.098 36.7574 40.2344C36.7574 40.3707 36.8108 40.5016 36.9062 40.5989C37.3093 41.0034 37.7882 41.3242 38.3155 41.5432C38.8429 41.7621 39.4082 41.8748 39.9792 41.8748C40.5501 41.8748 41.1155 41.7621 41.6428 41.5432C42.1701 41.3242 42.649 41.0034 43.0521 40.5989C43.1475 40.5016 43.201 40.3707 43.201 40.2344C43.201 40.098 43.1475 39.9671 43.0521 39.8698C42.9552 39.7774 42.8265 39.7259 42.6927 39.7259C42.5589 39.7259 42.4302 39.7774 42.3333 39.8698Z" fill="#302D3D"/>
</svg>
