<svg width="48" height="48" viewBox="0 0 48 48" fill="none" xmlns="http://www.w3.org/2000/svg">
<path d="M24 7.68007C22.2426 7.67284 20.4962 7.95635 18.8314 8.51911C18.7851 8.5348 18.7402 8.55406 18.697 8.57671C14.8343 9.91405 11.6154 12.6544 9.67885 16.2543C7.74232 19.8541 7.22965 24.0503 8.24253 28.0105C9.25541 31.9706 11.7198 35.4054 15.1469 37.6334C18.574 39.8613 22.7134 40.7197 26.7438 40.0383C30.7743 39.3568 34.4013 37.1853 36.9054 33.9544C39.4095 30.7236 40.6078 26.6696 40.2624 22.5965C39.917 18.5235 38.0533 14.7291 35.0409 11.966C32.0285 9.20298 28.0876 7.67316 24 7.68007ZM32.1523 35.8618C31.2819 36.4477 30.3496 36.9358 29.3722 37.3172C28.8634 37.3671 28.3584 37.4401 27.8362 37.4401C24.864 37.4417 21.9553 36.5804 19.4633 34.9607C16.9713 33.341 15.0032 31.0326 13.7979 28.3158C12.5926 25.5991 12.202 22.5908 12.6736 19.6563C13.1452 16.7218 14.4586 13.9874 16.4544 11.785C17.3867 11.2001 18.3834 10.7246 19.4246 10.3681C19.4741 10.3511 19.5222 10.3306 19.5686 10.3066C20.9984 9.83523 22.4946 9.59667 24 9.60007C27.0713 9.60266 30.0613 10.5872 32.5334 12.4098C35.0054 14.2324 36.8299 16.7977 37.7405 19.7309C38.651 22.6641 38.5999 25.8116 37.5945 28.7137C36.5892 31.6158 34.6823 34.1205 32.1523 35.8618ZM28.752 20.6055L25.3574 24.0001L28.752 27.3946C28.9269 27.5757 29.0236 27.8182 29.0215 28.0699C29.0193 28.3216 28.9183 28.5624 28.7403 28.7404C28.5623 28.9184 28.3215 29.0193 28.0698 29.0215C27.8181 29.0237 27.5756 28.9269 27.3946 28.7521L24 25.3575L20.6054 28.7521C20.5169 28.8438 20.411 28.9169 20.2938 28.9672C20.1767 29.0175 20.0507 29.044 19.9233 29.0451C19.7958 29.0462 19.6694 29.0219 19.5514 28.9737C19.4334 28.9254 19.3262 28.8541 19.2361 28.764C19.146 28.6738 19.0747 28.5666 19.0264 28.4487C18.9781 28.3307 18.9539 28.2043 18.955 28.0768C18.9561 27.9493 18.9826 27.8234 19.0329 27.7062C19.0832 27.5891 19.1563 27.4832 19.248 27.3946L22.6426 24.0001L19.248 20.6055C19.1563 20.5169 19.0832 20.411 19.0329 20.2939C18.9826 20.1768 18.9561 20.0508 18.955 19.9233C18.9539 19.7959 18.9781 19.6695 19.0264 19.5515C19.0747 19.4335 19.146 19.3263 19.2361 19.2362C19.3262 19.146 19.4334 19.0747 19.5514 19.0265C19.6694 18.9782 19.7958 18.9539 19.9233 18.955C20.0507 18.9561 20.1767 18.9826 20.2938 19.0329C20.411 19.0832 20.5169 19.1564 20.6054 19.2481L24 22.6426L27.3946 19.2481C27.4831 19.1564 27.5891 19.0832 27.7062 19.0329C27.8233 18.9826 27.9493 18.9561 28.0767 18.955C28.2042 18.9539 28.3306 18.9782 28.4486 19.0265C28.5666 19.0747 28.6738 19.146 28.7639 19.2362C28.854 19.3263 28.9253 19.4335 28.9736 19.5515C29.0219 19.6695 29.0462 19.7959 29.045 19.9233C29.0439 20.0508 29.0175 20.1768 28.9671 20.2939C28.9168 20.411 28.8437 20.5169 28.752 20.6055Z" fill="#C70000"/>
</svg>
