<svg width="30" height="30" viewBox="0 0 30 30" fill="none" xmlns="http://www.w3.org/2000/svg">
<path d="M24.9252 11.7208C24.2327 10.0945 23.1516 8.66298 21.7767 7.55201C20.4018 6.44104 18.7753 5.68456 17.0398 5.34896L18.6075 2.84062L17.0175 1.84687L14.9489 5.15672C12.8417 5.16649 10.7836 5.79339 9.02875 6.95996C7.27394 8.12652 5.89935 9.78164 5.07481 11.7208C3.97035 11.7418 2.91821 12.1953 2.14456 12.9838C1.37091 13.7723 0.9375 14.8328 0.9375 15.9375C0.9375 17.0422 1.37091 18.1027 2.14456 18.8912C2.91821 19.6797 3.97035 20.1332 5.07481 20.1542C5.90286 22.1013 7.28535 23.7619 9.05015 24.9291C10.815 26.0964 12.8841 26.7188 15 26.7188C17.1159 26.7188 19.1851 26.0964 20.9499 24.9291C22.7147 23.7619 24.0971 22.1013 24.9252 20.1542C26.0297 20.1332 27.0818 19.6797 27.8554 18.8912C28.6291 18.1027 29.0625 17.0422 29.0625 15.9375C29.0625 14.8328 28.6291 13.7723 27.8554 12.9838C27.0818 12.1953 26.0297 11.7418 24.9252 11.7208ZM26.5161 17.5787C26.0873 18.0173 25.5029 18.2691 24.8896 18.2796L23.6752 18.3026L23.1998 19.4203C22.5159 21.029 21.3738 22.4011 19.9157 23.3655C18.4577 24.33 16.7482 24.8442 15 24.8442C13.2519 24.8442 11.5424 24.33 10.0843 23.3655C8.6263 22.4011 7.48419 21.029 6.80022 19.4203L6.32479 18.3026L5.11043 18.2796C4.49687 18.2681 3.91232 18.0163 3.48247 17.5783C3.05262 17.1403 2.81181 16.5512 2.81181 15.9375C2.81181 15.3238 3.05262 14.7347 3.48247 14.2967C3.91232 13.8587 4.49687 13.6069 5.11043 13.5954L6.32479 13.5724L6.80022 12.4547C7.48421 10.846 8.62633 9.47396 10.0844 8.50953C11.5424 7.5451 13.2519 7.03087 15 7.03087C16.7482 7.03087 18.4577 7.5451 19.9157 8.50953C21.3737 9.47396 22.5159 10.846 23.1998 12.4547L23.6752 13.5724L24.8896 13.5954C25.3472 13.6041 25.7923 13.7466 26.1698 14.0055C26.5473 14.2643 26.8407 14.628 27.0137 15.0518C27.1868 15.4755 27.2318 15.9407 27.1434 16.3898C27.055 16.8389 26.8369 17.2522 26.5161 17.5787Z" fill="#D48C00"/>
<path d="M9.84375 13.5938H12.1875V15.9375H9.84375V13.5938ZM17.8125 13.5938H20.1562V15.9375H17.8125V13.5938ZM15 22.5C15.6156 22.5 16.2251 22.3788 16.7938 22.1432C17.3625 21.9076 17.8793 21.5623 18.3146 21.1271C18.7498 20.6918 19.0951 20.175 19.3307 19.6063C19.5663 19.0376 19.6875 18.4281 19.6875 17.8125H10.3125C10.3125 18.4281 10.4337 19.0376 10.6693 19.6063C10.9049 20.175 11.2502 20.6918 11.6854 21.1271C12.5645 22.0061 13.7568 22.5 15 22.5Z" fill="#D48C00"/>
</svg>
