<svg width="36" height="36" viewBox="0 0 36 36" fill="none" xmlns="http://www.w3.org/2000/svg">
<path fill-rule="evenodd" clip-rule="evenodd" d="M22.5 5.99999C22.5 5.54999 22.299 5.12549 21.951 4.84049C21.603 4.55549 21.147 4.44149 20.706 4.52849L5.706 7.52849C5.004 7.66949 4.5 8.28449 4.5 8.99999V27C4.5 27.7155 5.004 28.3305 5.706 28.4715L20.706 31.4715C21.147 31.5585 21.603 31.4445 21.951 31.1595C22.299 30.8745 22.5 30.45 22.5 30V5.99999Z" fill="url(#paint0_linear_59_3424)"/>
<path fill-rule="evenodd" clip-rule="evenodd" d="M26.379 16.5H12C11.172 16.5 10.5 17.172 10.5 18C10.5 18.828 11.172 19.5 12 19.5H26.379L25.9395 19.9395C25.3545 20.5245 25.3545 21.4755 25.9395 22.0605C26.5245 22.6455 27.4755 22.6455 28.0605 22.0605L31.0605 19.0605C31.647 18.4755 31.647 17.5245 31.0605 16.9395L28.0605 13.9395C27.4755 13.3545 26.5245 13.3545 25.9395 13.9395C25.3545 14.5245 25.3545 15.4755 25.9395 16.0605L26.379 16.5Z" fill="url(#paint1_linear_59_3424)"/>
<defs>
<linearGradient id="paint0_linear_59_3424" x1="9.819" y1="24.5475" x2="21.0015" y2="5.5905" gradientUnits="userSpaceOnUse">
<stop stop-color="white"/>
<stop offset="1" stop-color="white"/>
</linearGradient>
<linearGradient id="paint1_linear_59_3424" x1="21.411" y1="19.365" x2="24.2745" y2="9.81901" gradientUnits="userSpaceOnUse">
<stop stop-color="white"/>
<stop offset="1" stop-color="white"/>
</linearGradient>
</defs>
</svg>
